Coordinates
datacolumns 6
datarows 126
range 0 1.25
inDegrees=yes
Units are S.I. units (second, meters, Newtons, ...)
If the header above contains a line with 'inDegrees', this indicates whether rotational values are in degrees (yes) or radians (no).
endheader
time	foot_tx	hip_flexion_r	knee_angle_r	ankle_angle_r	lumbar
0	0.2445051	70.7834892	-68.64503128	-2.42841112	-11.58269731
0.01	0.24455624	70.78651793	-68.64332989	-2.42718422	-11.72322546
0.02	0.24459857	70.81832157	-68.64143232	-2.42848209	-11.84862416
0.03	0.24464071	70.84782396	-68.63817787	-2.43127282	-11.9969788
0.04	0.24467455	70.88044218	-68.63216138	-2.43615582	-12.16444783
0.05	0.24470614	70.91400425	-68.62278135	-2.44363462	-12.35400611
0.06	0.24470932	70.95279538	-68.61511474	-2.44946488	-12.5629764
0.07	0.2447057	70.99839754	-68.60357804	-2.45799173	-12.7903156
0.08	0.24469421	71.05123321	-68.5880293	-2.46896151	-13.03681758
0.09	0.24466589	71.11320002	-68.56977967	-2.48094531	-13.3013725
0.1	0.24462612	71.18639323	-68.54917411	-2.4938923	-13.58083821
0.11	0.24457978	71.26918111	-68.52486206	-2.50868574	-13.87676763
0.12	0.24452563	71.3627631	-68.50043983	-2.52323049	-14.18639426
0.13	0.24448123	71.46605365	-68.47211235	-2.54082714	-14.51094517
0.14	0.24445099	71.57813817	-68.44001449	-2.5617141	-14.85256524
0.15	0.24444217	71.70128043	-68.40248164	-2.58756652	-15.21032524
0.16	0.24445174	71.83544706	-68.35864138	-2.61883259	-15.58684535
0.17	0.24446842	71.98604678	-68.31055868	-2.65424327	-15.97800033
0.18	0.24448733	72.15372824	-68.2575199	-2.69378479	-16.38571113
0.19	0.24450335	72.3443121	-68.20109052	-2.73634751	-16.80440775
0.2	0.24451415	72.56140712	-68.14261967	-2.78067531	-17.23044628
0.21	0.24451873	72.80961906	-68.08367487	-2.82536671	-17.65779655
0.22	0.24451378	73.088299	-68.02672146	-2.86749297	-18.08531294
0.23	0.24449329	73.39552406	-67.97456449	-2.90347206	-18.51239671
0.24	0.24445225	73.72893692	-67.92863199	-2.93085557	-18.93953955
0.25	0.24439057	74.08857285	-67.88766368	-2.94984469	-19.36582013
0.26	0.24431132	74.47745061	-67.84967568	-2.96169855	-19.78726884
0.27	0.24422679	74.89916939	-67.80891707	-2.97001398	-20.1990365
0.28	0.24414187	75.36436642	-67.76217143	-2.97695061	-20.58843681
0.29	0.24405894	75.85025002	-67.70859946	-2.98037528	-20.98433147
0.3	0.24397603	76.40128749	-67.64990569	-2.98279857	-21.33504278
0.31	0.24389704	76.99551696	-67.58662875	-2.98223136	-21.66804937
0.32	0.24382365	77.64254776	-67.52100197	-2.9780574	-21.97103477
0.33	0.24375376	78.34844011	-67.45520882	-2.96869321	-22.23485041
0.34	0.24368654	79.10926158	-67.39172678	-2.95176375	-22.46006078
0.35	0.24362859	79.92723554	-67.32821977	-2.92799134	-22.63942778
0.36	0.24356842	80.8015946	-67.2679963	-2.89368076	-22.76851808
0.37	0.24352525	81.73346821	-67.2029964	-2.85340518	-22.84086013
0.38	0.2434758	82.71986932	-67.14008568	-2.80074295	-22.85488571
0.39	0.24343275	83.75401284	-67.07304375	-2.73822514	-22.81447645
0.4	0.24339409	84.83979915	-67.0023538	-2.66498141	-22.70868526
0.41	0.24336201	85.97070076	-66.9265749	-2.57945597	-22.53882549
0.42	0.243334	87.1468006	-66.84641259	-2.47901006	-22.29656737
0.43	0.24331183	88.3610054	-66.76115108	-2.36172934	-21.98142061
0.44	0.2433011	89.60584076	-66.66980794	-2.22626836	-21.59421556
0.45	0.24329845	90.86986226	-66.57625644	-2.06878879	-21.14106285
0.46	0.24330295	92.14486699	-66.48717591	-1.88554566	-20.62476194
0.47	0.24330471	93.40635055	-66.40719067	-1.67157128	-20.0692776
0.48	0.24330137	94.64291134	-66.34523708	-1.42221565	-19.48340919
0.49	0.24329568	95.8301191	-66.30366005	-1.13550015	-18.8932429
0.5	0.24330688	96.95334949	-66.28175408	-0.81319401	-18.312936
0.51	0.24334514	97.98945005	-66.27752739	-0.45670097	-17.76679966
0.52	0.24342871	98.92190452	-66.2842932	-0.07158118	-17.26945555
0.53	0.24355866	99.73616364	-66.29838834	0.33826325	-16.83225453
0.54	0.2437287	100.4269268	-66.31796117	0.76899841	-16.45458443
0.55	0.24392496	100.9924309	-66.34407727	1.21805557	-16.13193322
0.56	0.24412958	101.4358032	-66.37678815	1.68253482	-15.85313013
0.57	0.24434161	101.7604895	-66.41391491	2.15784443	-15.60739828
0.58	0.24455524	101.9693199	-66.45139804	2.6397498	-15.38404655
0.59	0.24476621	102.065198	-66.48403446	3.12406324	-15.17392379
0.6	0.24497142	102.0485498	-66.50544125	3.60744954	-14.97149116
0.61	0.24516539	101.9020814	-66.50784339	4.08798095	-14.7948004
0.62	0.24535973	101.676169	-66.47050501	4.55266922	-14.57202869
0.63	0.24555381	101.3628355	-66.378737	4.99620813	-14.31043974
0.64	0.24574068	100.913884	-66.22194656	5.41798581	-14.07251017
0.65	0.24592549	100.3782395	-65.97933997	5.80454338	-13.79214263
0.66	0.2461032	99.74675539	-65.63939066	6.15104821	-13.48177823
0.67	0.24627167	99.01849663	-65.19052921	6.45116875	-13.1445643
0.68	0.24642613	98.19515777	-64.62595565	6.70076055	-12.78136197
0.69	0.24656386	97.27540726	-63.94347396	6.89798959	-12.3978391
0.7	0.24668361	96.25565747	-63.14297129	7.04211036	-12.00260454
0.71	0.24678995	95.1297345	-62.22911269	7.13487467	-11.60696664
0.72	0.24688464	93.89397406	-61.20826682	7.17962875	-11.21932746
0.73	0.24697398	92.53411585	-60.0878829	7.18047407	-10.85986558
0.74	0.24706694	91.04060518	-58.87533193	7.14109399	-10.54196875
0.75	0.24717007	89.41547901	-57.57467569	7.06299861	-10.26399704
0.76	0.24728938	87.65611943	-56.19279829	6.94944292	-10.02914907
0.77	0.2474272	85.76513952	-54.73709206	6.80427475	-9.83534919
0.78	0.24758158	83.75375628	-53.21495559	6.63112366	-9.66985507
0.79	0.24774899	81.62973285	-51.63501153	6.43454095	-9.52495746
0.8	0.24792051	79.3992913	-50.00576389	6.2196256	-9.39643646
0.81	0.24809043	77.07077055	-48.33471303	5.99066287	-9.27700472
0.82	0.24825266	74.64546048	-46.62941356	5.75244779	-9.16826961
0.83	0.24840467	72.13977044	-44.89549475	5.50734873	-9.05409584
0.84	0.24853826	69.54066143	-43.14476956	5.2627059	-8.95374107
0.85	0.24864825	66.86226587	-41.3855746	5.02194094	-8.85409869
0.86	0.24872815	64.11083849	-39.62529765	4.78851348	-8.75217039
0.87	0.24877577	61.28927201	-37.86866016	4.56454271	-8.65132217
0.88	0.24878545	58.42740832	-36.11321856	4.34752848	-8.5173634
0.89	0.24877642	55.52987617	-34.36247634	4.13709804	-8.3583159
0.9	0.24875045	52.6267711	-32.61719433	3.93152327	-8.1459256
0.91	0.24872534	49.73444894	-30.88136048	3.72944403	-7.87624619
0.92	0.24871373	46.8758967	-29.16044321	3.52940273	-7.5415384
0.93	0.24871232	44.07494851	-27.46329575	3.33301419	-7.13204566
0.94	0.24872433	41.35594979	-25.80132968	3.14146047	-6.6463056
0.95	0.248738	38.73833455	-24.1874057	2.95847622	-6.08724802
0.96	0.24874519	36.24642036	-22.63462561	2.7870576	-5.45448845
0.97	0.24872567	33.90154156	-21.15749027	2.6324741	-4.74726208
0.98	0.24868533	31.71051004	-19.76494541	2.49559809	-3.98561528
0.99	0.24861872	29.6855881	-18.46466601	2.37828603	-3.17276068
1	0.24853808	27.82266663	-17.26031683	2.27985647	-2.33242419
1.01	0.24844438	26.11646504	-16.15498524	2.20171517	-1.48052817
1.02	0.24835737	24.55834179	-15.14689801	2.14184416	-0.63396229
1.03	0.24829298	23.136249	-14.23156292	2.09789752	0.19260641
1.04	0.24825492	21.83745085	-13.40412915	2.06911922	0.98930681
1.05	0.24824778	20.64820064	-12.65893592	2.0539274	1.74561289
1.06	0.24826103	19.55722677	-11.9894506	2.05170335	2.45869907
1.07	0.24829215	18.55227562	-11.38776872	2.06014854	3.12354646
1.08	0.24833447	17.62489428	-10.84615908	2.07701158	3.74008311
1.09	0.24838136	16.76712052	-10.35756469	2.10035416	4.30861959
1.1	0.24843195	15.97390501	-9.91391253	2.12708641	4.83346983
1.11	0.2484836	15.23789362	-9.51022924	2.15630191	5.31469716
1.12	0.24853155	14.55661177	-9.14227024	2.18774608	5.76028216
1.13	0.24856832	13.92205118	-8.80996531	2.22375772	6.16891173
1.14	0.24858541	13.33214368	-8.51378258	2.26694632	6.54640688
1.15	0.24858936	12.78679383	-8.25665842	2.31944404	6.89570456
1.16	0.24859861	12.28845792	-8.04617665	2.38385351	7.21519076
1.17	0.24860887	11.82339651	-7.88473704	2.46485772	7.4996213
1.18	0.24866793	11.40782171	-7.77911255	2.55984646	7.75221618
1.19	0.24878755	11.03731369	-7.7303629	2.66905408	7.96831658
1.2	0.24898164	10.71140933	-7.73604977	2.78967764	8.14580562
1.21	0.24924788	10.43184937	-7.79295394	2.91880428	8.28175771
1.22	0.24957749	10.19568348	-7.88892028	3.05054098	8.37988832
1.23	0.24994322	10.00266461	-8.01268214	3.18020749	8.44378203
1.24	0.25032069	9.87176868	-8.15619396	3.3038523	8.5020899
1.25	0.25069386	9.73788733	-8.28688929	3.41174482	8.50347929
